<svg xmlns="http://www.w3.org/2000/svg" width="31" height="29" viewBox="0 0 31 29" fill="none">
<path d="M15.9953 0C20.5168 0 25.0385 0 29.5601 0C30.5393 0 30.9904 0.426744 30.9904 1.373C30.9904 2.80166 31.0096 4.22105 30.9904 5.64971C30.952 8.26583 28.9745 10.5851 26.3153 11.0489C24.1649 11.4293 22.3121 10.7799 20.8145 9.23992C20.6417 9.06366 20.5553 8.98017 20.3441 9.22137C17.8385 12.0787 13.6241 11.5406 11.5505 9.17498C11.3681 8.96161 11.2913 9.0451 11.1569 9.19354C9.92805 10.548 8.40165 11.2345 6.52005 11.1603C6.43365 11.1603 6.34725 11.1603 6.27045 11.151C5.65605 11.0861 5.65605 11.0861 5.65605 11.6891C5.65605 16.2255 5.65605 20.7527 5.65605 25.2892C5.65605 25.5118 5.64645 25.7345 5.74245 25.9386C5.93445 26.3653 6.25125 26.6344 6.75045 26.6529C7.79685 26.6807 8.83365 26.6251 9.88005 26.6993C10.0721 26.7178 10.1681 26.6344 10.1681 26.4395C10.1681 26.3468 10.1681 26.254 10.1681 26.1612C10.1681 22.5339 10.1681 18.9066 10.1681 15.2793C10.1681 14.9639 10.1777 14.6577 10.2065 14.3423C10.2641 13.7764 10.7249 13.3589 11.3105 13.3589C14.4017 13.3496 17.5025 13.3496 20.5937 13.3589C21.2753 13.3589 21.7553 13.8692 21.7649 14.5649C21.7745 16.1606 21.7649 17.7655 21.7649 19.3612C21.7649 20.6785 21.7745 22.0051 21.7649 23.3225C21.7553 24.0924 20.9777 24.6583 20.2289 24.4543C19.7969 24.3337 19.5377 24.0553 19.4321 23.6379C19.3745 23.4152 19.3745 23.1833 19.3745 22.9514C19.3745 20.6692 19.3745 18.3871 19.3745 16.0956C19.3745 15.6225 19.3745 15.6225 18.8753 15.6225C16.9169 15.6225 14.9681 15.6318 13.0097 15.6132C12.6641 15.6132 12.5585 15.6967 12.5585 16.04C12.5681 19.4447 12.5681 22.8586 12.5585 26.2633C12.5585 26.6251 12.6641 26.7086 13.0289 26.7086C15.7745 26.69 18.5201 26.7179 21.2753 26.69C22.5329 26.6715 23.7905 26.6715 25.0481 26.6529C25.8641 26.6436 26.2865 26.2354 26.2865 25.4469C26.2865 21.9495 26.2865 18.4427 26.2865 14.9453C26.2865 14.7412 26.2865 14.5278 26.3153 14.3237C26.4113 13.73 26.9009 13.3496 27.5345 13.3589C28.1201 13.3682 28.5905 13.7764 28.6768 14.3701C28.696 14.5 28.6865 14.6206 28.6865 14.7505C28.6865 18.285 28.6576 21.8196 28.6961 25.3541C28.7248 27.3765 26.9969 29.0093 24.9233 29C18.9233 28.9536 12.9233 28.9814 6.93285 28.9814C5.14725 28.9814 3.69765 27.8218 3.34245 26.1427C3.28485 25.8922 3.30405 25.6324 3.30405 25.382C3.30405 20.4187 3.30405 15.4555 3.30405 10.4923C3.30405 10.2047 3.22725 10.0099 2.98725 9.80582C1.72005 8.72041 1.02885 7.34741 1.00965 5.68682C0.990451 4.2396 1.00005 2.79239 1.00965 1.33589C1.00965 0.426743 1.45125 0 2.39205 0C6.92325 0 11.4641 0 15.9953 0ZM28.5905 4.35093C28.5905 3.70154 28.5809 3.17274 28.5905 2.63468C28.6 2.37492 28.5137 2.2636 28.2257 2.2636C26.2001 2.27287 24.1745 2.27287 22.1489 2.2636C21.8609 2.2636 21.7745 2.35637 21.7745 2.6254C21.784 3.59949 21.7745 4.57358 21.7745 5.53839C21.7745 7.22681 23.1665 8.72041 24.9617 8.85029C26.7473 8.98944 28.2161 7.65355 28.5041 6.23416C28.6577 5.58477 28.552 4.90755 28.5905 4.35093ZM6.75045 2.28215C5.73285 2.28215 4.71525 2.28215 3.69765 2.28215C3.51525 2.28215 3.35205 2.28215 3.36165 2.52335C3.39045 3.68298 3.29445 4.84261 3.41925 5.99296C3.56325 7.38452 4.97445 9.05438 7.04805 8.85029C8.60325 8.69258 10.2353 7.32885 10.1873 5.56622C10.1585 4.60141 10.1777 3.64587 10.1873 2.68106C10.1873 2.3842 10.1009 2.27287 9.77445 2.27287C8.76645 2.29143 7.75845 2.27287 6.75045 2.28215ZM15.9857 2.27287C14.9873 2.27287 13.9985 2.29143 13.0001 2.2636C12.6449 2.25432 12.5489 2.37492 12.5681 2.69962C12.6065 3.39539 12.6545 4.09117 12.6065 4.78695C12.5777 5.22297 12.5585 5.65899 12.6353 6.10429C12.8753 7.5144 14.2481 8.9245 15.9857 8.86884C17.8769 8.81318 19.3265 7.41235 19.3745 5.68682C19.4032 4.66635 19.3745 3.64587 19.3841 2.6254C19.3841 2.35637 19.2881 2.2636 19.0097 2.2636C18.0017 2.28215 16.9937 2.28215 15.9857 2.27287Z" fill="#833CFA"/>
</svg>