<svg xmlns="http://www.w3.org/2000/svg" width="64" height="64" viewBox="0 0 64 64" fill="none">
<path d="M25.9999 21.56C30.7399 15.28 26.9299 5.92 19.0899 5.28C18.7799 5.28 18.4699 5.28 18.1499 5.28C17.2129 5.28034 16.2794 5.39451 15.3699 5.62C8.55992 7.31 5.81992 15.62 9.86992 21.32L16.8699 31.32C16.9694 31.4544 17.0991 31.5636 17.2484 31.6389C17.3978 31.7142 17.5627 31.7534 17.7299 31.7534C17.8972 31.7534 18.0621 31.7142 18.2114 31.6389C18.3608 31.5636 18.4904 31.4544 18.5899 31.32L25.9999 21.56Z" stroke="#833CFA" stroke-width="2" stroke-linecap="round" stroke-linejoin="round"/>
<path d="M18.0399 20.04C21.0665 20.04 23.5199 17.5865 23.5199 14.56C23.5199 11.5335 21.0665 9.08 18.0399 9.08C15.0134 9.08 12.5599 11.5335 12.5599 14.56C12.5599 17.5865 15.0134 20.04 18.0399 20.04Z" stroke="#833CFA" stroke-width="2" stroke-linecap="round" stroke-linejoin="round"/>
<path d="M42.6099 47.32C45.6099 43.4 43.1899 37.54 38.2899 37.14H37.6999C37.1168 37.1377 36.5356 37.2082 35.9699 37.35C34.9854 37.624 34.0817 38.1318 33.3358 38.8304C32.5899 39.5289 32.024 40.3974 31.6861 41.3619C31.3482 42.3263 31.2485 43.3582 31.3955 44.3695C31.5424 45.3808 31.9316 46.3416 32.5299 47.17L36.9399 53.41C37.0011 53.4947 37.0815 53.5636 37.1745 53.6112C37.2675 53.6587 37.3705 53.6835 37.4749 53.6835C37.5794 53.6835 37.6824 53.6587 37.7754 53.6112C37.8684 53.5636 37.9488 53.4947 38.0099 53.41L42.6099 47.32Z" stroke="#833CFA" stroke-width="2" stroke-linecap="round" stroke-linejoin="round"/>
<path d="M37.6299 45.41C38.9941 45.41 40.0999 44.3041 40.0999 42.94C40.0999 41.5759 38.9941 40.47 37.6299 40.47C36.2658 40.47 35.1599 41.5759 35.1599 42.94C35.1599 44.3041 36.2658 45.41 37.6299 45.41Z" stroke="#833CFA" stroke-width="2" stroke-linecap="round" stroke-linejoin="round"/>
<path d="M53.37 24.03L62.29 47.44L34.29 58.02L2.20996 47.44L11.98 28.07" stroke="#833CFA" stroke-width="2" stroke-linecap="round" stroke-linejoin="round"/>
<path d="M28.86 21.16L34.13 23.86L36.79 22.51" stroke="#833CFA" stroke-width="2" stroke-linecap="round" stroke-linejoin="round"/>
<path d="M34.2799 54.46L34.2899 58.02" stroke="#833CFA" stroke-width="2" stroke-linecap="round" stroke-linejoin="round"/>
<path d="M34.13 23.86L34.18 35.37" stroke="#833CFA" stroke-width="2" stroke-linecap="round" stroke-linejoin="round"/>
<path d="M40 21H43.44L44.34 25.06C44.3968 25.2518 44.5098 25.4222 44.6644 25.5491C44.819 25.6761 45.0082 25.7537 45.2074 25.772C45.4066 25.7903 45.6067 25.7485 45.7819 25.6518C45.9571 25.5552 46.0992 25.4083 46.19 25.23L48 21H63V1H40V21Z" stroke="#833CFA" stroke-width="2" stroke-linecap="round" stroke-linejoin="round"/>
<path d="M44 5H47" stroke="#833CFA" stroke-width="2" stroke-linecap="round" stroke-linejoin="round"/>
<path d="M50 5H60" stroke="#833CFA" stroke-width="2" stroke-linecap="round" stroke-linejoin="round"/>
<path d="M44 9H52" stroke="#833CFA" stroke-width="2" stroke-linecap="round" stroke-linejoin="round"/>
<path d="M56 9H59" stroke="#833CFA" stroke-width="2" stroke-linecap="round" stroke-linejoin="round"/>
<path d="M46 13H60" stroke="#833CFA" stroke-width="2" stroke-linecap="round" stroke-linejoin="round"/>
<path d="M44 17H56" stroke="#833CFA" stroke-width="2" stroke-linecap="round" stroke-linejoin="round"/>
</svg>