<svg xmlns="http://www.w3.org/2000/svg" width="64" height="64" viewBox="0 0 64 64" fill="none">
<path d="M51.36 21.2C51.3601 18.066 50.6118 14.9774 49.1773 12.191C47.7428 9.40462 45.6636 7.00113 43.1127 5.18051C40.5619 3.3599 37.613 2.17482 34.5117 1.72388C31.4104 1.27294 28.2462 1.56919 25.2824 2.58798C22.3187 3.60676 19.6411 5.31862 17.4725 7.5811C15.3039 9.84359 13.707 12.5913 12.8146 15.5955C11.9223 18.5997 11.7603 21.7736 12.3422 24.8531C12.9241 27.9325 14.233 30.8285 16.16 33.3C20.2894 38.3989 22.5825 44.7393 22.67 51.3V52.52H40.67V50.71C40.7505 44.4184 42.9846 38.3443 47 33.5C49.8178 30.0196 51.3567 25.6781 51.36 21.2Z" stroke="#833CFA" stroke-width="2" stroke-linecap="round" stroke-linejoin="round"/>
<path d="M22.23 55.58H41.13" stroke="#833CFA" stroke-width="2" stroke-linecap="round" stroke-linejoin="round"/>
<path d="M22.23 59.25H41.13" stroke="#833CFA" stroke-width="2" stroke-linecap="round" stroke-linejoin="round"/>
<path d="M22.23 62.92H41.13" stroke="#833CFA" stroke-width="2" stroke-linecap="round" stroke-linejoin="round"/>
<path d="M31.6802 48.83V32" stroke="#833CFA" stroke-width="2" stroke-linecap="round" stroke-linejoin="round"/>
<path d="M35.0801 48.83V39.83H39.0801" stroke="#833CFA" stroke-width="2" stroke-linecap="round" stroke-linejoin="round"/>
<path d="M28.3299 48.83V39.83H24.1699" stroke="#833CFA" stroke-width="2" stroke-linecap="round" stroke-linejoin="round"/>
</svg>