<svg xmlns="http://www.w3.org/2000/svg" width="40" height="35" viewBox="0 0 40 35" fill="none">
<path d="M7.76148 23.3654C10.0062 23.3654 11.804 25.0962 11.9104 27.3397C11.9211 27.6175 12.0168 27.7457 12.2721 27.8205C13.187 28.0662 14.0913 28.3226 14.9955 28.5897C15.2083 28.6538 15.3253 28.6004 15.4636 28.4188C17.0062 26.3034 19.5062 25.9509 21.5806 27.5534C21.7615 27.6923 21.8891 27.6923 22.0806 27.5855C23.0594 27.0406 24.0274 26.4957 25.0168 25.9722C25.3359 25.8013 25.4317 25.6197 25.3466 25.2564C24.8147 22.8632 26.3891 20.5556 28.804 20.2137C30.3998 19.9893 31.7615 20.5235 32.7402 21.8269C33.7083 23.1303 33.8891 24.562 33.2296 26.0577C33.0594 26.453 33.1232 26.6667 33.4104 26.9444C34.4317 27.938 35.4317 28.9637 36.4317 29.9679C36.7296 30.2564 36.8891 30.5983 36.7721 31.015C36.5594 31.8269 35.6764 32.0726 35.0594 31.4744C34.3253 30.7585 33.6125 30.0214 32.8785 29.2949C32.5168 28.9316 32.1551 28.5791 31.8147 28.2158C31.6551 28.0449 31.5168 28.0235 31.2934 28.1303C29.687 28.8996 28.1764 28.7073 26.7721 27.6175C26.5806 27.4679 26.4423 27.4573 26.2402 27.5641C25.2083 28.141 24.1657 28.7179 23.1232 29.2735C22.8998 29.391 22.8679 29.5192 22.9211 29.7543C23.5274 32.4573 21.7508 34.8718 18.9955 34.9893C16.7828 35.0855 15.0381 33.4295 14.7508 31.4209C14.6125 30.4487 14.8253 30.6838 13.8891 30.3953C13.1657 30.1709 12.4317 29.9786 11.7083 29.7543C11.4636 29.6795 11.304 29.7009 11.1445 29.9359C9.83595 31.7735 7.59127 32.2863 5.63382 31.1752C5.33595 31.0043 5.17638 31.0577 4.96361 31.282C3.92106 32.3718 2.86786 33.4402 1.81467 34.5192C1.58063 34.765 1.31467 34.9573 0.95297 34.9466C0.20829 34.9145 -0.249157 34.1026 0.14446 33.4615C0.250843 33.2906 0.389141 33.141 0.527439 33.0021C1.56999 31.9444 2.62318 30.8761 3.67637 29.8291C3.91042 29.594 3.97425 29.4017 3.84659 29.0705C2.77212 26.3034 4.80403 23.3654 7.76148 23.3654ZM31.6445 24.3162C31.6338 23.141 30.6338 22.1474 29.4742 22.1368C28.2296 22.1368 27.2189 23.141 27.2402 24.3697C27.2508 25.5662 28.2615 26.5812 29.4317 26.5598C30.687 26.5491 31.6551 25.5662 31.6445 24.3162ZM18.9211 32.9808C20.1232 32.9701 21.1338 31.9338 21.1125 30.7372C21.0913 29.5299 20.1019 28.547 18.9104 28.547C17.7083 28.5363 16.6977 29.562 16.6977 30.7692C16.7083 31.9872 17.7189 32.9915 18.9211 32.9808ZM9.95297 27.5427C9.93169 26.3248 8.92106 25.3205 7.71893 25.3419C6.50616 25.3632 5.50616 26.3996 5.53808 27.5962C5.56999 28.8034 6.54872 29.7756 7.75084 29.7756C8.93169 29.7756 9.96361 28.7286 9.95297 27.5427Z" fill="white"/>
<path d="M25.2934 8.94231C25.2934 6.36752 25.2934 3.79274 25.2934 1.21795C25.2934 0.320513 25.6125 0 26.4849 0C28.4636 0 30.4423 0 32.4211 0C33.2615 0 33.5806 0.320513 33.5806 1.15385C33.5806 6.36752 33.5806 11.5919 33.5806 16.8056C33.5806 17.4893 33.2934 17.8633 32.7508 17.9274C32.1125 18.0021 31.6764 17.5855 31.6764 16.891C31.6657 15.0321 31.6764 13.1838 31.6764 11.3248C31.6764 8.37607 31.6764 5.42735 31.6764 2.47863C31.6764 1.92308 31.6657 1.91239 31.1232 1.91239C29.9955 1.91239 28.8679 1.91239 27.7296 1.91239C27.2189 1.91239 27.1976 1.93376 27.1976 2.45727C27.1976 7.23291 27.1976 12.0192 27.1976 16.7949C27.1976 17.5 26.8998 17.8846 26.3359 17.9274C25.7402 17.9808 25.304 17.5962 25.2934 16.9872C25.2828 16.2286 25.2828 15.4701 25.2828 14.7009C25.2934 12.7885 25.2934 10.8654 25.2934 8.94231Z" fill="white"/>
<path d="M3.59127 12.2115C3.59127 9.6047 3.59127 7.00855 3.59127 4.40171C3.59127 3.51496 3.91042 3.20513 4.7934 3.20513C6.77212 3.20513 8.75084 3.20513 10.7296 3.20513C11.5381 3.20513 11.8785 3.53632 11.8785 4.33761C11.8785 9.57265 11.8785 14.797 11.8785 20.0321C11.8785 20.4808 11.7721 20.8547 11.3359 21.0577C10.9636 21.2286 10.6125 21.1752 10.2934 20.9188C10.0168 20.6944 9.96361 20.3953 9.96361 20.0534C9.96361 17.4679 9.96361 14.8718 9.96361 12.2863C9.96361 10.0855 9.96361 7.88462 9.96361 5.68376C9.96361 5.14957 9.95297 5.1282 9.44233 5.1282C8.30403 5.1282 7.1551 5.1282 6.0168 5.1282C5.5168 5.1282 5.50616 5.14957 5.49552 5.65171C5.49552 10.438 5.49552 15.235 5.49552 20.0214C5.49552 20.6944 5.20829 21.0791 4.66574 21.1432C4.05935 21.2073 3.59127 20.7906 3.59127 20.1496C3.58063 18.7393 3.59127 17.3184 3.59127 15.9081C3.59127 14.6688 3.59127 13.4402 3.59127 12.2115Z" fill="white"/>
<path d="M14.7615 15.3526C14.7615 12.7778 14.7615 10.203 14.7615 7.6282C14.7615 6.73077 15.07 6.41026 15.953 6.41026C17.9423 6.41026 19.9423 6.41026 21.9317 6.41026C22.7189 6.41026 23.0487 6.75214 23.0487 7.52137C23.0487 12.7671 23.0487 18.0128 23.0487 23.2585C23.0487 23.6859 22.9423 24.0491 22.5168 24.2521C22.1232 24.4338 21.7615 24.3697 21.4423 24.1026C21.1657 23.8782 21.1338 23.5684 21.1338 23.2372C21.1338 19.5833 21.1338 15.9188 21.1338 12.265C21.1338 11.1325 21.1338 10 21.1338 8.85684C21.1338 8.3547 21.1125 8.33333 20.6232 8.33333C19.4849 8.33333 18.3359 8.33333 17.1977 8.33333C16.687 8.33333 16.6657 8.34402 16.6657 8.8782C16.6657 13.6538 16.6657 18.4295 16.6657 23.2158C16.6657 23.8889 16.4104 24.2521 15.8891 24.3483C15.2934 24.4444 14.7721 24.0278 14.7615 23.4081C14.7508 22.6068 14.7615 21.8056 14.7615 21.0043C14.7615 19.1132 14.7615 17.2329 14.7615 15.3526Z" fill="white"/>
<path d="M39.0062 34.9466C38.453 34.9466 38.0274 34.4979 38.0381 33.9423C38.0487 33.4081 38.4743 32.9915 39.0062 32.9808C39.5594 32.9808 39.9955 33.4081 39.9955 33.9637C39.9849 34.5299 39.5594 34.9573 39.0062 34.9466Z" fill="white"/>
</svg>