<svg xmlns="http://www.w3.org/2000/svg" width="36" height="36" viewBox="0 0 36 36" fill="none">
<circle cx="18" cy="18" r="17" stroke="#B795EF" stroke-width="1.5" stroke-linecap="round" stroke-linejoin="round"/>
<path d="M22.0147 17.9917C22.3029 18.1351 22.5819 18.3008 22.8498 18.4858C23.3333 18.82 23.7715 19.2059 24.1685 19.639C24.6976 20.2164 25.1318 20.8586 25.4732 21.5639C25.689 22.0099 25.8598 22.4728 25.9951 22.9492C26.0055 22.9858 26.002 22.9996 25.9583 22.9996C25.0451 22.9985 24.1317 22.9984 23.2185 23C23.17 23.0001 23.1615 22.9748 23.1501 22.9395C22.9498 22.3252 22.6628 21.7554 22.2701 21.2415C21.6739 20.4617 20.9234 19.8958 19.9809 19.5989C19.7166 19.5157 19.446 19.4628 19.1714 19.4288C19.1389 19.4248 19.129 19.435 19.1318 19.4655C19.1332 19.481 19.1321 19.4967 19.1321 19.5124C19.1321 20.6495 19.1321 21.7867 19.1321 22.9238C19.1321 22.9987 19.1321 22.9985 19.0562 22.9987C18.6913 23.0004 18.3266 22.9941 17.9627 22.9652C16.583 22.8551 15.2818 22.4907 14.0973 21.7554C13.5395 21.4091 13.0369 20.9943 12.5886 20.5137C11.7179 19.5805 11.1173 18.4889 10.7039 17.2881C10.4811 16.6407 10.3203 15.9776 10.2088 15.3021C10.1333 14.8438 10.0793 14.3834 10.0448 13.9203C10.0237 13.6379 10.0143 13.355 10.0004 13.0722C9.99769 13.0178 10.0079 12.9999 10.0675 13C10.9379 13.0022 11.8083 13.0019 12.6785 13.0006C12.724 13.0005 12.7407 13.0072 12.7417 13.0592C12.7489 13.4653 12.7755 13.8703 12.8202 14.2742C12.9008 15.0022 13.0438 15.7165 13.2777 16.4114C13.4813 17.0159 13.7493 17.5891 14.1104 18.1163C14.5308 18.73 15.0451 19.2445 15.7003 19.6075C15.9358 19.7379 16.1829 19.8409 16.4433 19.9118C16.4949 19.9259 16.5063 19.916 16.506 19.8644C16.5045 19.4444 16.5052 19.0243 16.5052 18.6042C16.5052 16.7637 16.5052 14.9232 16.5053 13.0827C16.5053 12.9869 16.4961 13.002 16.5858 13.0019C17.4113 13.0014 18.2367 13.0022 19.0623 13.0004C19.1177 13.0002 19.1334 13.0122 19.1332 13.07C19.1314 14.3419 19.1318 15.614 19.1318 16.8859C19.1318 16.9599 19.1316 16.9577 19.2065 16.9464C19.7683 16.8604 20.2531 16.6046 20.6959 16.2619C21.3766 15.7353 21.893 15.0713 22.2986 14.3168C22.5168 13.9111 22.69 13.4869 22.8135 13.0428C22.8221 13.0121 22.8348 13.0007 22.8689 13.0008C23.7022 13.002 24.5355 13.0018 25.3688 13.0019C25.3802 13.0019 25.3917 13.004 25.4166 13.0064C24.9802 15.149 23.8042 16.7764 22.0147 17.9917Z" fill="#B795EF"/>
</svg>