<svg xmlns="http://www.w3.org/2000/svg" width="36" height="36" viewBox="0 0 36 36" fill="none">
<circle cx="18" cy="18" r="17" stroke="#B795EF" stroke-width="1.5" stroke-linecap="round" stroke-linejoin="round"/>
<path d="M26.1616 11C26.1049 11 26.0401 11.0081 25.9834 11.0324L10.3261 16.9859C9.88064 17.156 9.89684 17.7797 10.3423 17.9336L13.9711 19.1567L16.1581 23.5388L16.1662 23.5469C16.2067 23.6279 16.2877 23.6765 16.3768 23.6765C16.4254 23.6765 16.4821 23.6603 16.5307 23.6198L18.58 21.8783L16.2877 20.1449L16.4659 22.4291L14.8216 19.019L23.5696 13.7621L16.2877 20.1368L21.9577 24.4379C22.144 24.5837 22.3627 24.6485 22.5814 24.6485C23.0269 24.6485 23.4643 24.3569 23.5858 23.8628L26.6476 11.6075C26.7286 11.2997 26.4694 11 26.1616 11Z" fill="#B795EF"/>
</svg>