<svg xmlns="http://www.w3.org/2000/svg" width="64" height="64" viewBox="0 0 64 64" fill="none">
<path d="M49.7 62.23H8.29995C7.73439 62.2604 7.16904 62.1666 6.6436 61.9551C6.11817 61.7437 5.64538 61.4198 5.25846 61.0062C4.87154 60.5926 4.57986 60.0993 4.4039 59.561C4.22795 59.0226 4.17199 58.4523 4.23995 57.89L10.17 22.55C10.3076 21.9075 10.6662 21.3335 11.1832 20.9279C11.7003 20.5223 12.3431 20.3107 12.9999 20.33H45C45.6568 20.3107 46.2996 20.5223 46.8167 20.9279C47.3337 21.3335 47.6923 21.9075 47.83 22.55L53.7599 57.89C53.8279 58.4523 53.772 59.0226 53.596 59.561C53.42 60.0993 53.1284 60.5926 52.7414 61.0062C52.3545 61.4198 51.8817 61.7437 51.3563 61.9551C50.8309 62.1666 50.2655 62.2604 49.7 62.23Z" stroke="#833CFA" stroke-width="2" stroke-linecap="round" stroke-linejoin="round"/>
<path d="M17.5699 20.33C17.5659 18.8269 17.8587 17.3379 18.4315 15.9482C19.0043 14.5586 19.8457 13.2957 20.9076 12.2319C21.9695 11.1682 23.231 10.3245 24.6196 9.74929C26.0083 9.17409 27.4968 8.87869 28.9999 8.88001C30.5004 8.8787 31.9865 9.17311 33.3732 9.74643C34.7599 10.3198 36.02 11.1607 37.0815 12.2213C38.143 13.2819 38.9851 14.5413 39.5596 15.9275C40.1341 17.3136 40.4299 18.7995 40.4299 20.3" stroke="#833CFA" stroke-width="2" stroke-linecap="round" stroke-linejoin="round"/>
<path d="M15 20.33L15.83 15.38C15.964 14.7383 16.3205 14.1645 16.8365 13.7601C17.3525 13.3557 17.9948 13.1467 18.65 13.17H19.8" stroke="#833CFA" stroke-width="2" stroke-linecap="round" stroke-linejoin="round"/>
<path d="M19.8101 13.17H50.6701C51.3252 13.1467 51.9676 13.3557 52.4836 13.7601C52.9996 14.1645 53.3561 14.7383 53.4901 15.38L59.4301 50.72C59.8101 53 55.8101 55.06 53.2901 55.06" stroke="#833CFA" stroke-width="2" stroke-linecap="round" stroke-linejoin="round"/>
<path d="M23.7 9.92C24.3958 7.54415 25.8449 5.45876 27.8289 3.97798C29.8129 2.4972 32.2243 1.70124 34.7 1.71C37.7262 1.71794 40.6257 2.92568 42.7628 5.06836C44.8999 7.21104 46.1 10.1138 46.0999 13.14" stroke="#833CFA" stroke-width="2" stroke-linecap="round" stroke-linejoin="round"/>
</svg>