<svg xmlns="http://www.w3.org/2000/svg" width="64" height="64" viewBox="0 0 64 64" fill="none">
<g clip-path="url(#clip0_102_328)">
<path d="M57.11 34.71C57.11 40.2321 55.4726 45.6301 52.4047 50.2215C49.3368 54.8129 44.9763 58.3915 39.8746 60.5047C34.7728 62.6179 29.1591 63.1708 23.7431 62.0935C18.3272 61.0162 13.3523 58.3571 9.44761 54.4524C5.54293 50.5477 2.88381 45.5729 1.80651 40.1569C0.729208 34.741 1.28212 29.1272 3.39532 24.0255C5.50851 18.9238 9.08709 14.5633 13.6785 11.4954C18.2699 8.42749 23.668 6.79001 29.19 6.79001V34.71H57.11Z" stroke="#833CFA" stroke-width="2" stroke-linecap="round" stroke-linejoin="round"/>
<path d="M62.69 30.31C62.6873 22.6364 59.6372 15.2779 54.2101 9.8528C48.7831 4.42766 41.4236 1.38 33.75 1.38V30.31H62.69Z" stroke="#833CFA" stroke-width="2" stroke-linecap="round" stroke-linejoin="round"/>
</g>
<defs>
<clipPath id="clip0_102_328">
<rect width="64" height="64" fill="white"/>
</clipPath>
</defs>
</svg>