<svg xmlns="http://www.w3.org/2000/svg" width="64" height="64" viewBox="0 0 64 64" fill="none">
<path fill-rule="evenodd" clip-rule="evenodd" d="M31.2929 6.29289C31.6834 5.90237 32.3166 5.90237 32.7071 6.29289L52.4071 25.9929C52.6931 26.2789 52.7787 26.709 52.6239 27.0827C52.4691 27.4564 52.1045 27.7 51.7 27.7H42.85V46.4C42.85 46.9523 42.4023 47.4 41.85 47.4H22.15C21.5977 47.4 21.15 46.9523 21.15 46.4V27.7H12.3C11.8956 27.7 11.5309 27.4564 11.3761 27.0827C11.2214 26.709 11.3069 26.2789 11.5929 25.9929L31.2929 6.29289ZM14.7142 25.7H22.15C22.7023 25.7 23.15 26.1477 23.15 26.7V45.4H40.85V26.7C40.85 26.1477 41.2977 25.7 41.85 25.7H49.2858L32 8.41421L14.7142 25.7Z" fill="#833CFA"/>
<path fill-rule="evenodd" clip-rule="evenodd" d="M0.0200195 45.3C0.0200195 44.7477 0.467735 44.3 1.02002 44.3H9.87002C10.4223 44.3 10.87 44.7477 10.87 45.3V53.15H53.13V45.3C53.13 44.7477 53.5777 44.3 54.13 44.3H62.98C63.5323 44.3 63.98 44.7477 63.98 45.3V63C63.98 63.5523 63.5323 64 62.98 64H1.02002C0.467735 64 0.0200195 63.5523 0.0200195 63V45.3ZM2.02002 46.3V62H61.98V46.3H55.13V54.15C55.13 54.7023 54.6823 55.15 54.13 55.15H9.87002C9.31773 55.15 8.87002 54.7023 8.87002 54.15V46.3H2.02002Z" fill="#833CFA"/>
</svg>