<svg xmlns="http://www.w3.org/2000/svg" width="31" height="38" viewBox="0 0 31 38" fill="none">
<path d="M0 20.2386C0 15.805 0 11.3713 0 6.93769C0 4.31034 1.78467 2.49309 4.35417 2.49309C4.99923 2.49309 5.64429 2.48214 6.28935 2.49309C6.92366 2.50404 7.3107 2.89814 7.29995 3.52214C7.2892 4.11329 6.91291 4.49644 6.28935 4.50739C5.64429 4.51834 4.99923 4.50739 4.35417 4.50739C2.91353 4.51834 1.97819 5.47075 1.97819 6.93769C1.97819 15.794 1.97819 24.6394 1.97819 33.4958C1.97819 35.0613 2.90278 35.9808 4.46168 35.9808C11.6756 35.9808 18.8896 35.9808 26.1035 35.9808C26.8776 35.9808 27.0603 35.7728 27.0818 34.9846C27.1679 32.0508 27.2539 29.1059 27.3399 26.1721C27.3506 25.8984 27.3721 25.6247 27.4151 25.351C27.4904 24.8256 27.9204 24.4752 28.4257 24.4971C28.974 24.519 29.3718 24.9022 29.3718 25.4605C29.3826 27.015 29.2966 28.5805 29.2321 30.135C29.189 31.2516 29.1675 32.3792 29.1245 33.4958C29.103 34.2183 29.0815 34.9408 29.0385 35.6634C28.9633 36.9223 27.7914 37.9842 26.4905 37.9951C23.491 38.0061 20.5022 37.9951 17.5027 37.9951C13.084 37.9951 8.66533 37.9951 4.23591 37.9951C2.07495 37.9951 0.397788 36.5501 0.0322531 34.3935C0 34.1088 0 33.8023 0 33.4958C0 29.084 0 24.6613 0 20.2386Z" fill="white"/>
<path d="M30.9737 15.6736C30.9737 16.1881 30.9845 16.7136 30.9737 17.2281C30.963 17.7208 30.7157 18.0711 30.3072 18.2024C29.9094 18.3338 29.5223 18.2353 29.2428 17.8412C29.0278 17.5237 28.9525 17.6551 28.8235 17.885C26.3293 22.1216 23.835 26.3582 21.3408 30.5838C21.2548 30.7261 21.1795 30.8685 21.0828 30.9998C20.7387 31.4487 20.2227 31.5253 19.7711 31.175C19.6636 31.0983 19.5669 30.9889 19.4809 30.8903C16.7501 28.1097 14.0301 25.3401 11.2993 22.5595C10.923 22.1763 10.9338 22.1763 10.6758 22.6689C9.91245 24.1468 9.14913 25.6247 8.3858 27.0916C7.98802 27.8579 7.21394 28.0112 6.71939 27.4201C6.41837 27.0588 6.42912 26.6647 6.63339 26.2706C6.97742 25.5919 7.32145 24.9131 7.67624 24.2344C8.3428 22.9536 9.00936 21.6727 9.67593 20.3919C10.1597 19.4504 10.8585 19.33 11.6004 20.0854C14.3311 22.855 17.0511 25.6356 19.7819 28.4163C20.1689 28.8104 20.1689 28.8104 20.4592 28.3287C22.7277 24.4862 24.9961 20.6437 27.2754 16.8012C27.4474 16.5056 27.5441 16.3305 27.1033 16.21C26.7486 16.1115 26.5228 15.794 26.512 15.4109C26.5013 15.0387 26.6411 14.6993 26.9851 14.5132C27.8667 14.0425 28.7375 13.5608 29.6406 13.1339C30.2964 12.8164 30.9522 13.2762 30.9952 14.0315C31.006 14.3052 30.9952 14.5789 30.9952 14.8526C30.9845 15.1263 30.9845 15.3999 30.9737 15.6736Z" fill="white"/>
<path d="M14.5676 0.0299532C15.417 0.0299532 16.2556 0.0190059 17.1049 0.0299532C18.5455 0.0518477 19.5561 0.741527 20.1259 2.0771C20.2657 2.39457 20.427 2.49309 20.7495 2.49309C22.0826 2.48214 23.405 2.48214 24.7381 2.48214C27.2539 2.48214 29.06 4.31034 29.0708 6.87201C29.0708 7.57263 29.0708 8.26231 29.0708 8.96294C29.06 9.67451 28.6945 10.0796 28.0709 10.0796C27.4689 10.0796 27.1033 9.66356 27.0926 8.97388C27.0818 8.29515 27.0926 7.60547 27.0926 6.92674C27.0711 5.45981 26.1573 4.50739 24.7166 4.50739C23.3512 4.49644 21.9751 4.50739 20.6097 4.49644C20.3194 4.49644 20.1582 4.58402 20.0077 4.84676C19.3626 6.00717 18.395 6.64211 17.0511 6.63117C15.3632 6.62022 13.6646 6.63117 11.9766 6.63117C10.3102 6.62022 8.8696 5.31749 8.72984 3.70824C8.56857 1.92383 9.69743 0.358372 11.3961 0.0737423C12.2347 -0.0685724 13.084 0.0409005 13.9333 0.0299532C14.1376 0.0299532 14.3526 0.0299532 14.5676 0.0299532ZM14.5676 2.0552C13.7076 2.0552 12.8475 2.03331 11.9874 2.0552C11.2348 2.0771 10.6758 2.6573 10.6865 3.34698C10.6973 4.03666 11.2348 4.60592 11.9659 4.61687C13.6753 4.63876 15.374 4.63876 17.0834 4.61687C17.6639 4.60592 18.1155 4.2556 18.2875 3.74108C18.567 2.88719 17.9757 2.0771 17.0189 2.04425C16.2126 2.03331 15.3955 2.0552 14.5676 2.0552Z" fill="white"/>
<path d="M5.49378 29.5219C6.05283 29.5219 6.47212 29.9051 6.47212 30.4306C6.47212 30.9341 5.99907 31.4049 5.51528 31.4049C5.03148 31.4049 4.55844 30.9232 4.55844 30.4306C4.54769 29.916 4.95622 29.5329 5.49378 29.5219Z" fill="white"/>
</svg>