<svg xmlns="http://www.w3.org/2000/svg" width="40" height="36" viewBox="0 0 40 36" fill="none">
<path d="M17.9374 35.9968C22.5886 35.9219 26.6569 34.3359 30.105 31.1763C30.4027 30.914 30.6508 30.6268 30.6384 30.1897C30.626 29.7775 30.4523 29.4778 30.105 29.278C29.7453 29.0782 29.3856 29.1032 29.0507 29.328C28.8771 29.4528 28.7159 29.6027 28.5546 29.7526C25.9995 32.0754 23.0228 33.4617 19.5995 33.7988C14.6381 34.2859 10.3466 32.7748 6.79928 29.278C4.20699 26.7428 2.7186 23.6332 2.24728 20.049C1.32944 13.0679 5.03801 6.58638 11.0164 3.65158C19.1529 -0.344739 29.1128 3.47675 32.5237 11.9315C32.5733 12.0439 32.6105 12.1687 32.6601 12.2811C32.933 12.8931 33.5035 13.1429 34.0617 12.9056C34.595 12.6808 34.8307 12.1063 34.595 11.4944C33.888 9.62109 32.8958 7.92265 31.6058 6.39906C28.5422 2.77739 24.6724 0.554434 19.984 0.104848C12.3435 -0.619486 6.42718 2.41522 2.40852 9.02164C0.709272 11.7941 -0.0473272 14.8912 0.00228588 18.1258C0.138722 27.08 6.46439 34.1985 14.7374 35.7096C15.7916 35.8969 16.8583 36.0218 17.9374 35.9968Z" fill="white"/>
<path d="M17.8382 5.96196C11.8846 5.96196 6.79928 10.4204 6.03027 16.3274C5.17445 22.8589 9.5528 28.8409 16.0149 29.8525C19.587 30.4145 22.7995 29.4903 25.6026 27.155C26.136 26.7054 26.2352 26.056 25.8507 25.5939C25.4662 25.1193 24.8212 25.0819 24.2755 25.5439C22.8243 26.7553 21.1747 27.5171 19.3018 27.7919C14.3033 28.5412 9.50319 25.3067 8.31248 20.3862C6.94812 14.8038 10.483 9.25892 16.1017 8.1974C20.5545 7.34818 25.1065 9.78344 26.9174 13.9796C27.2895 14.8413 27.798 15.141 28.4306 14.8788C29.0755 14.604 29.2244 13.9921 28.8275 13.1304C26.8554 8.90925 23.5437 6.56141 18.9669 5.98694C18.9049 5.97445 18.8429 5.97445 18.7808 5.97445C18.4583 5.96196 18.1483 5.96196 17.8382 5.96196Z" fill="white"/>
<path d="M38.5268 25.6813C38.502 25.2817 38.3656 24.8696 38.1299 24.4949C37.7702 23.9329 37.4478 23.346 37.0633 22.7965C36.8524 22.4843 36.9144 22.3219 37.2245 22.1471C37.8199 21.8099 38.3904 21.4227 38.961 21.0606C39.6928 20.5985 40.1021 19.9491 39.978 19.0624C39.8416 18.1383 39.271 17.5763 38.3532 17.364C36.4679 16.9269 34.5826 16.4773 32.7097 16.0277C32.288 15.9278 31.9283 16.0027 31.5562 16.2275C30.2042 17.0767 28.8399 17.9135 27.4879 18.7752C27.2151 18.95 26.967 19 26.6569 18.9125C24.1763 18.3131 21.6832 17.7386 19.2025 17.1517C19.1033 17.1267 18.9917 17.1017 18.8801 17.0892C18.2351 16.9768 17.739 17.2765 17.5901 17.8635C17.4537 18.413 17.7886 18.9625 18.4211 19.1248C19.3142 19.3621 20.232 19.5619 21.1251 19.7743C22.8243 20.1739 24.5236 20.586 26.2352 20.9731C26.5081 21.0356 26.6693 21.1605 26.8058 21.3853C27.6368 22.734 28.4802 24.0828 29.2988 25.444C29.5717 25.9061 29.9314 26.1684 30.4523 26.2808C32.3128 26.6929 34.1609 27.155 36.009 27.5796C37.3361 27.8918 38.5144 26.9926 38.5268 25.6813ZM36.2198 25.4191C36.0834 25.4191 36.0214 25.4315 35.9594 25.4191C34.409 25.0569 32.8585 24.6822 31.3081 24.3201C31.1097 24.2701 30.9857 24.1702 30.874 23.9954C30.2291 22.9338 29.5717 21.8723 28.9143 20.8108C28.7531 20.5485 28.8027 20.4112 29.0631 20.2488C30.0926 19.6244 31.1221 18.975 32.1392 18.3256C32.3872 18.1632 32.6229 18.1632 32.8958 18.2257C33.8384 18.463 34.7935 18.6753 35.7485 18.9001C36.3563 19.0499 36.964 19.1873 37.5966 19.3372C37.485 19.5495 37.3237 19.5994 37.1997 19.6743C36.4555 20.1489 35.6989 20.611 34.9547 21.0855C34.3221 21.4977 34.1981 22.0347 34.5826 22.6841C34.7935 23.0462 35.0167 23.3959 35.24 23.7581C35.5377 24.3076 35.8601 24.8446 36.2198 25.4191Z" fill="white"/>
<path d="M17.8134 23.9954C19.1405 24.0203 20.232 23.6332 21.2367 22.9713C21.8693 22.5592 22.0181 21.9597 21.6584 21.4227C21.3111 20.9107 20.7157 20.8233 20.108 21.2104C17.7886 22.6591 14.9482 21.6975 14.1544 19.1748C13.6087 17.4389 14.2909 15.5531 15.8165 14.6165C17.3669 13.6549 19.3514 13.8922 20.6413 15.2035C20.8026 15.3658 20.9514 15.5531 21.1127 15.7155C21.522 16.1276 22.1297 16.1526 22.539 15.8029C22.9483 15.4532 23.0352 14.8288 22.6879 14.3667C21.6336 12.9555 20.232 12.1188 18.4956 11.9564C15.1839 11.6567 12.48 13.8172 11.9342 17.1017C11.4257 20.1739 13.5963 23.271 16.6599 23.8705C17.0816 23.9704 17.5033 24.0203 17.8134 23.9954Z" fill="white"/>
</svg>